<svg viewBox="0 0 400 400">
  <g fill-rule="evenodd">
    <path d="M192.4 63.237c-15.134 1.97-29.425 7.737-38.568 15.563-6.118 5.236-9.977 9.073-11.781 11.714-.334.487-.887 1.156-1.229 1.486-2.044 1.968-7.235 10.891-9.425 16.2-.817 1.98-1.645 3.913-1.841 4.295-.196.382-.356.969-.356 1.305 0 .336-.162.923-.361 1.305-.94 1.809-2.509 9.445-3.277 15.944-.755 6.394.203 18.07 2.023 24.651 1.412 5.106 1.638 5.791 3.168 9.608 13.283 33.148 48.409 52.304 83.447 45.51 1.1-.213 2.63-.497 3.4-.63s1.76-.387 2.2-.563c.44-.176 2.06-.713 3.6-1.193 3.616-1.127 3.527-1.09 9.444-3.962 4.108-1.994 12.313-7.007 13.156-8.038.11-.135.83-.756 1.6-1.381 3.947-3.204 9.827-9.395 12.395-13.051.541-.77 1.303-1.749 1.694-2.175.391-.427.711-1.012.711-1.3 0-.289.18-.525.4-.525.22 0 .4-.197.4-.438s.369-.957.821-1.592c8.445-11.86 12.676-34.589 9.524-51.17-2.2-11.575-9.715-29.088-13.903-32.4-.139-.11-1.054-1.19-2.032-2.4-2.276-2.814-7.629-8.17-10.21-10.215-1.1-.872-2.09-1.69-2.2-1.819-.718-.839-8.096-5.38-11.571-7.121-12.482-6.256-28.668-9.243-41.229-7.608m1.4 174.556c-.22.103-3.37.378-7 .61-10.481.67-18.636 1.806-28.4 3.957-1.661.366-2.479.563-6.7 1.613-.825.206-2.13.554-2.9.773-.77.22-1.85.517-2.4.66-5.121 1.332-18.092 5.97-23.4 8.367-1.1.496-2.799 1.246-3.776 1.665-8.482 3.64-24.823 13.112-32.024 18.562-.77.582-2.48 1.855-3.8 2.829-1.32.973-2.49 1.87-2.6 1.993-.11.122-1.041.857-2.068 1.632-9.165 6.914-22.488 20.362-31.234 31.526l-2.648 3.381.675 1.205c.371.663 1.08 1.625 1.575 2.138.495.513.9 1.067.9 1.231 0 .164.585.932 1.3 1.706a60.814 60.814 0 0 1 2.686 3.183 65.487 65.487 0 0 0 2.999 3.512c.887.955 1.973 2.2 2.414 2.768 1.052 1.355 10.162 10.46 11.528 11.522.584.454 2.099 1.818 3.367 3.031 1.268 1.214 2.846 2.552 3.506 2.975.66.422 1.868 1.443 2.684 2.268.816.825 1.638 1.5 1.825 1.5.187 0 .689.32 1.116.711.426.391 1.405 1.15 2.175 1.687.77.536 1.632 1.2 1.915 1.475.283.274 1.048.814 1.7 1.199.652.385 1.185.842 1.185 1.014 0 .173.27.314.6.314.33 0 .6.18.6.4 0 .22.27.4.6.4.33 0 .6.18.6.4 0 .22.188.4.417.4.229 0 .803.36 1.275.8.472.44 1.095.8 1.383.8.289 0 .525.152.525.337 0 .186.81.754 1.8 1.263.99.509 1.8 1.077 1.8 1.263 0 .185.241.337.535.337.294 0 1.54.72 2.769 1.6 1.229.88 2.356 1.6 2.505 1.6.388 0 3.153 1.311 3.391 1.608.11.138.534.374.942.525.438.162.649.512.517.858-.123.321-.024.707.22.858.259.16.333.093.176-.16-.147-.238-.11-.531.082-.65.414-.256 2.455.625 2.46 1.061.002.165.363.3.803.3.44 0 .8.18.8.4 0 .22.36.4.8.4.44 0 .8.18.8.4 0 .22.36.4.8.4.44 0 .8.18.8.4 0 .22.372.4.827.4.657 0 .781.185.604.9-.123.495-.12.675.006.4.272-.592 2.163-.68 2.163-.1 0 .22.36.4.8.4.44 0 .8.18.8.4 0 .22.36.4.8.4.44 0 .8.18.8.4 0 .22.45.4 1 .4s1 .18 1 .4c0 .22.45.4 1 .4s1 .18 1 .4c0 .22.36.4.8.4.44 0 .8.18.8.4 0 .22.54.4 1.2.4.66 0 1.2.199 1.2.443 0 .243.265.341.588.217.324-.124.863.048 1.197.382.335.335.757.517.938.405.443-.273 3.415.768 3.577 1.253.07.211.569.299 1.109.196.628-.12 1.062.024 1.206.399.14.365.578.519 1.158.408.513-.098 1.055.019 1.204.259.148.241.715.438 1.259.438.544 0 1.079.233 1.188.518.128.334.693.461 1.587.357 1.043-.122 1.389-.012 1.389.44 0 .426.382.586 1.3.544.715-.032 1.27.121 1.233.341-.039.234.668.342 1.7.26 1.104-.088 1.767.025 1.767.3 0 .247.702.44 1.6.44 1.068 0 1.6.178 1.6.535 0 .367.53.523 1.693.5 1.04-.022 1.696.145 1.7.432.004.256.142.601.307.766.165.165.3.09.3-.166 0-.288.705-.467 1.843-.467 1.456 0 1.795.123 1.617.587-.124.323-.053.694.157.824.211.13.383.046.383-.187 0-.242.859-.424 2-.424 1.1 0 2 .18 2 .4 0 .226 1.133.4 2.6.4s2.6.174 2.6.4c0 .233 1.333.4 3.2.4 1.867 0 3.2.167 3.2.4 0 .246 1.992.4 5.176.4 3.02 0 5.28.167 5.424.4.153.247 3.604.4 9.024.4 5.584 0 8.776-.145 8.776-.4 0-.247 2.067-.4 5.4-.4s5.4-.153 5.4-.4c0-.233 1.333-.4 3.2-.4 1.867 0 3.2-.167 3.2-.4 0-.225 1.125-.4 2.576-.4 1.417 0 2.688-.18 2.824-.4.353-.572 3.8-.511 3.8.067 0 .256.135.331.3.166.165-.165.302-.51.305-.766.003-.297.758-.461 2.072-.451 1.217.009 2.037-.156 1.995-.4-.04-.232.637-.412 1.528-.406.926.005 1.785-.232 2.04-.562.307-.399.88-.501 1.891-.337 1.006.164 1.423.091 1.36-.238-.05-.261.447-.524 1.109-.587.66-.063 1.593-.312 2.074-.554.48-.241 1.234-.345 1.674-.23.474.124.887-.017 1.014-.346.117-.306.748-.556 1.402-.556.654 0 1.311-.197 1.459-.438.149-.24.704-.354 1.234-.253.599.114 1.091-.045 1.302-.422.208-.37.661-.523 1.165-.391.518.136.91-.007 1.055-.386.144-.375.575-.536 1.147-.426.504.096 1.146-.071 1.427-.371.28-.301.835-.444 1.231-.318.428.136.81-.004.941-.343.121-.315.99-.702 1.932-.862.942-.159 2.034-.447 2.428-.639.393-.193 1.073-.531 1.51-.751.437-.22 1.067-.4 1.4-.4.333 0 .605-.18.605-.4 0-.22.45-.4 1-.4s1-.18 1-.4c0-.22.45-.4 1-.4s1-.18 1-.4c0-.22.36-.4.8-.4.44 0 .8-.18.8-.4 0-.22.45-.4 1-.4s1-.18 1-.4c0-.22.36-.4.8-.4.44 0 .8-.18.8-.4 0-.22.36-.4.8-.4.44 0 .8-.18.8-.4 0-.22.36-.4.8-.4.44 0 .8-.18.8-.4 0-.22.36-.4.8-.4.44 0 .8-.18.8-.4 0-.22.36-.4.8-.4.44 0 .8-.18.8-.4 0-.22.345-.4.767-.4.421 0 .826-.135.9-.3.073-.165 1.573-1.02 3.333-1.9 1.76-.88 3.344-1.825 3.52-2.1.176-.275.494-.5.708-.5.213 0 1.149-.489 2.08-1.086.931-.597 1.806-1.054 1.944-1.016.139.039.572-.283.962-.714.391-.431 1.002-.784 1.36-.784.357 0 .909-.36 1.226-.8.317-.44.773-.8 1.013-.8.24 0 .785-.315 1.212-.7.426-.385 1.27-.955 1.875-1.268.605-.312 1.1-.717 1.1-.9 0-.182.27-.332.6-.332.33 0 .6-.18.6-.4 0-.22.178-.4.395-.4.218 0 .773-.315 1.234-.7 1.961-1.638 2.408-1.978 4.597-3.5 1.265-.88 2.787-2.076 3.383-2.658.595-.582 1.829-1.599 2.743-2.261 4.992-3.617 20.502-19.12 24.248-24.238a39.031 39.031 0 0 1 2.5-3.025c.715-.761 1.3-1.519 1.3-1.683 0-.164.45-.749 1-1.299.55-.55 1-1.188 1-1.418 0-.23.167-.418.371-.418 1.229 0-.963-4.441-3.158-6.4-.123-.11-1.031-1.19-2.018-2.4-9.094-11.151-25.48-26.521-35.395-33.2-1.1-.741-2.09-1.464-2.2-1.606-1.911-2.471-26.239-16.09-35-19.593-.44-.176-1.43-.594-2.2-.929-3.628-1.58-14.237-5.377-18-6.443-.55-.156-1.54-.441-2.2-.633-10.593-3.094-19.796-4.965-31.6-6.425-7.138-.882-27.758-1.87-28.8-1.378" fill="#4494fc"/>
    <path d="M197.9 62.695c1.155.081 3.045.081 4.2 0 1.155-.081.21-.147-2.1-.147s-3.255.066-2.1.147m-5.195.388c.497.096 1.217.092 1.6-.008.382-.1-.025-.179-.905-.174-.88.004-1.193.086-.695.182m13.2 0c.497.096 1.217.092 1.6-.008.382-.1-.025-.179-.905-.174-.88.004-1.193.086-.695.182m-16.805.399a5.661 5.661 0 0 0 1.8 0c.495-.095.09-.173-.9-.173s-1.395.078-.9.173m20 0a5.661 5.661 0 0 0 1.8 0c.495-.095.09-.173-.9-.173s-1.395.078-.9.173m-24.6.794c.385.1 1.015.1 1.4 0 .385-.101.07-.183-.7-.183s-1.085.082-.7.183m-4.3.924c-.504.217-.578.344-.2.344.33 0 .96-.155 1.4-.344.504-.217.578-.344.2-.344-.33 0-.96.155-1.4.344m-28.919 15.403c-1.605 1.428-2.752 2.597-2.549 2.597.204 0 .617-.3.919-.666.302-.366 1.593-1.536 2.87-2.6 1.276-1.064 2.176-1.933 2-1.931-.177.002-1.634 1.172-3.24 2.6m97.207.01c.598.63 1.159 1.064 1.247.966.088-.099-.402-.614-1.088-1.145l-1.247-.965 1.088 1.144m4.332 4.008c.979 1.112 1.861 1.96 1.961 1.886.099-.074-.702-.984-1.78-2.021L251.04 82.6l1.78 2.021m-110.56 5.072c-.774.932-1.329 1.772-1.233 1.867.095.095.22.098.277.007.057-.092.696-.932 1.419-1.867 1.702-2.201 1.363-2.205-.463-.007M257.64 90c.947 1.21 1.775 2.275 1.841 2.367.065.091.115.001.111-.2-.005-.202-.833-1.267-1.841-2.367l-1.832-2 1.721 2.2M135.8 98.8c-.341.66-.531 1.2-.421 1.2.11 0 .48-.54.821-1.2.341-.66.531-1.2.421-1.2-.11 0-.48.54-.821 1.2m-1.6 2.8c-.341.66-.531 1.2-.421 1.2.11 0 .48-.54.821-1.2.341-.66.531-1.2.421-1.2-.11 0-.48.54-.821 1.2m-2.535 5.017c-.67 1.471-.542 1.785.182.448.339-.625.541-1.211.449-1.302-.091-.092-.375.293-.631.854m139.779 9.183c.329 1.471.558 1.79.55.767-.003-.422-.189-1.037-.412-1.367-.297-.438-.334-.276-.138.6m.814 3c.317 1.725.544 2.051.536.767-.003-.532-.183-1.237-.4-1.567-.276-.422-.317-.185-.136.8m-145.208 1.25c-.333 1.667-.01 1.99.35.35.152-.691.193-1.341.091-1.442-.102-.102-.3.389-.441 1.092m146.178 2.983c.016.642.188 1.527.382 1.967.237.534.276.202.117-1-.281-2.12-.539-2.62-.499-.967M126.449 123a17.47 17.47 0 0 1-.266 1.8l-.206 1 .429-.981c.236-.54.355-1.35.266-1.8-.159-.798-.165-.798-.223-.019m147.66 5c0 .99.078 1.395.173.9a5.661 5.661 0 0 0 0-1.8c-.095-.495-.173-.09-.173.9m-148.68 1.629c-.153 1.35-.196 2.537-.096 2.638.101.1.311-.92.467-2.267.156-1.347.199-2.534.095-2.638-.104-.104-.314.916-.466 2.267m149.064 1.571c0 .77.082 1.085.183.7.1-.385.1-1.015 0-1.4-.101-.385-.183-.07-.183.7m-149.217 12.2c-.009.66.127 2.01.304 3 .298 1.678.322 1.705.347.4.015-.77-.122-2.12-.304-3-.286-1.38-.333-1.435-.347-.4m148.912 1.988c-.157 1.676-.199 3.135-.093 3.241.106.105.317-1.183.47-2.864.152-1.681.194-3.139.093-3.241-.101-.101-.313 1.188-.47 2.864m-147.93 5.412c.317 1.725.544 2.051.536.767-.003-.532-.183-1.237-.4-1.567-.276-.422-.317-.185-.136.8m147.198-.316c-.135.504-.228 1.366-.207 1.916.023.589.182.271.387-.775.367-1.873.237-2.698-.18-1.141M127.844 157.8c.329 1.471.558 1.79.55.767-.003-.422-.189-1.037-.412-1.367-.297-.438-.334-.276-.138.6m1.389 4.296c-.051.457 2.04 5.653 2.455 6.104.203.22.016-.5-.416-1.6-1.2-3.057-2.003-4.832-2.039-4.504m138.639 6.523c-.94 1.97-.808 2.305.175.443.446-.846.74-1.608.654-1.695-.087-.086-.46.477-.829 1.252M132 168.947c0 .433 1.988 4.253 2.213 4.253.11 0-.274-.945-.854-2.1-1.116-2.221-1.359-2.606-1.359-2.153m133.4 4.653c-.341.66-.531 1.2-.421 1.2.11 0 .48-.54.821-1.2.341-.66.531-1.2.421-1.2-.11 0-.48.54-.821 1.2m-130.985.2c.002.22.371.85.821 1.4.543.664.679.731.404.2-.674-1.305-1.228-2.028-1.225-1.6m129.399 2.435c-.373.569-.587 1.126-.475 1.237.111.111.49-.354.842-1.035.778-1.504.563-1.622-.367-.202M137.328 178.6c.346.66 1.099 1.74 1.673 2.4.668.769.519.41-.415-1-1.727-2.606-2.121-3.045-1.258-1.4m122.764 3.229c-.495.754-.82 1.371-.723 1.371.278 0 1.935-2.429 1.77-2.594-.082-.082-.553.468-1.047 1.223m-4.67 5.746-1.578 1.825 1.759-1.686c.967-.928 1.677-1.749 1.577-1.826-.099-.076-.89.683-1.758 1.687m-108.442 2.712c2.188 2.248 4.063 4.003 4.166 3.9.103-.103.107-.232.008-.287-.098-.055-1.973-1.81-4.167-3.9L143 186.2l3.98 4.087m104.007 1.813-2.387 2.5 2.5-2.387c1.375-1.314 2.5-2.439 2.5-2.5 0-.296-.395.065-2.613 2.387m-10.06 7.827c-1.14.803-2.016 1.517-1.948 1.586.167.167 3.736-2.252 4.034-2.734.334-.54.22-.478-2.086 1.148m-79.327 1.852c0 .11.54.48 1.2.821.66.341 1.2.531 1.2.421 0-.11-.54-.48-1.2-.821-.66-.341-1.2-.531-1.2-.421m75.4.621c-.66.437-1.02.792-.8.788.401-.006 2.576-1.565 2.2-1.576-.11-.004-.74.351-1.4.788m-3.8 2c-1.21.639-2.059 1.171-1.887 1.181.425.026 4.287-1.945 4.287-2.188 0-.267.055-.29-2.4 1.007m-67-.044c.22.221 1.12.701 2 1.065 2.09.866 1.513.28-.695-.706-.938-.419-1.525-.58-1.305-.359m16.2 6.044c1.368.438 2.419.438 1.4 0-.44-.189-1.16-.338-1.6-.332-.643.009-.604.075.2.332m34 .018c-.438.297-.276.334.6.138 1.471-.329 1.79-.558.767-.55-.422.003-1.037.189-1.367.412m-30 .782c1.368.438 2.419.438 1.4 0-.44-.189-1.16-.338-1.6-.332-.643.009-.604.075.2.332m25.8.019c-.558.252-.315.288.8.119.88-.134 1.675-.31 1.767-.391.343-.303-1.799-.076-2.567.272m-20.6.801c2.55.454 4.821.416 2.6-.043-.88-.182-2.23-.319-3-.304-1.305.025-1.278.049.4.347m14-.02c-2.088.439.346.457 2.8.02l1.8-.32-1.6.003c-.88.001-2.23.135-3 .297m-18.8 26-2.2.27 2.2.018c1.21.01 3.37-.113 4.8-.274l2.6-.292-2.6.004c-1.43.003-3.59.126-4.8.274m21.4.013c1.54.158 3.7.284 4.8.279l2-.01-2.4-.297a44.394 44.394 0 0 0-4.8-.279l-2.4.02 2.8.287m-30 .787-1.6.286 1.4.01c.77.005 1.94-.128 2.6-.296 1.628-.414-.087-.414-2.4 0m41.2-.02c1.234.335 4.064.538 3.767.27-.092-.082-1.247-.25-2.567-.373-1.578-.147-1.989-.112-1.2.103m6.6.8c.999.34 3.482.552 3.167.271-.092-.082-1.067-.252-2.167-.379-1.349-.156-1.674-.121-1 .108m-59 .82c-1.089.277-1.107.307-.2.325.55.01 1.36-.136 1.8-.325.986-.424.066-.424-1.6 0m64.4-.019c.768.348 2.91.575 2.567.272-.092-.081-.887-.257-1.767-.391-1.115-.169-1.358-.133-.8.119m-68.6.819c-.804.257-.843.323-.2.332.44.006 1.16-.143 1.6-.332 1.019-.438-.032-.438-1.4 0m73.2 0c.33.213.96.378 1.4.366l.8-.022-.8-.344c-1.196-.514-2.195-.514-1.4 0m-77.4.8c-1.107.282-1.123.309-.2.347.55.022 1.27-.134 1.6-.347.681-.44.329-.44-1.4 0m81.4-.018c.33.223.945.409 1.367.412 1.023.008.704-.221-.767-.55-.876-.196-1.038-.159-.6.138m-84.8.818c-.824.264-.859.326-.2.354.44.019 1.07-.141 1.4-.354.701-.453.214-.453-1.2 0m88.4-.018c.33.223.945.409 1.367.412 1.023.008.704-.221-.767-.55-.876-.196-1.038-.159-.6.138m-91.8.818c-1.107.282-1.123.309-.2.347.55.022 1.27-.134 1.6-.347.681-.44.329-.44-1.4 0m-3 .8c-.824.264-.859.326-.2.354.44.019 1.07-.141 1.4-.354.701-.453.214-.453-1.2 0m101.2-.018c.33.223.945.409 1.367.412 1.023.008.704-.221-.767-.55-.876-.196-1.038-.159-.6.138m-104 .818c-.824.264-.859.326-.2.354.44.019 1.07-.141 1.4-.354.701-.453.214-.453-1.2 0m109.6.782c.33.223.945.409 1.367.412 1.023.008.704-.221-.767-.55-.876-.196-1.038-.159-.6.138m-114.4.643c-.77.291-1.106.54-.746.552.36.013 1.26-.24 2-.561 1.666-.724.662-.716-1.254.009m-30.9 12.804c-.605.328-1.1.681-1.1.784 0 .386.632.144 1.6-.613 1.189-.93 1.011-.991-.5-.171m178.9.135c.55.45 1.18.819 1.4.821.428.003-.295-.551-1.6-1.225-.531-.275-.464-.139.2.404m6 3.256c1.387.941 2.178 1.215 1.2.416-.55-.45-1.18-.819-1.4-.821-.22-.002-.13.181.2.405m7.8 4.587c.44.359 1.16.828 1.6 1.044l.8.393-.8-.651c-.44-.359-1.16-.828-1.6-1.044l-.8-.393.8.651m-216.4 6.625c-2.37 1.792-2.673 2.27-.52.822 1.033-.695 1.989-1.442 2.123-1.659.371-.601.136-.478-1.603.837m225.005-.959c.003.18.652.746 1.443 1.259.792.513 1.324.746 1.183.519-.39-.633-2.632-2.15-2.626-1.778M82.4 277.249c-1.394 1.222-1.395 1.223-.112.37.708-.471 1.394-1.028 1.524-1.238.385-.624.065-.427-1.412.868m233.6-1.162c0 .115 2.265 2.04 5.033 4.277 2.768 2.236 4.918 3.88 4.777 3.652-.141-.228-2.091-1.884-4.333-3.681a467.833 467.833 0 0 1-4.777-3.863c-.385-.328-.7-.501-.7-.385M72.77 285.1l-.97 1.1 1.2-1c.66-.55 1.275-1.045 1.367-1.1.091-.055-.012-.1-.231-.1-.218 0-.833.495-1.366 1.1m255.004.793c.866.931 1.661 1.606 1.767 1.5.106-.106.115-.238.021-.293-.094-.055-.889-.73-1.766-1.499l-1.596-1.4 1.574 1.692M69.385 288.1l-1.985 2.1 2.1-1.985c1.155-1.092 2.1-2.037 2.1-2.1 0-.298-.371.034-2.215 1.985M330 287.725c0 .069.585.654 1.3 1.3l1.3 1.175-1.175-1.3c-1.095-1.212-1.425-1.484-1.425-1.175m-267.389 6.664c-1.522 1.533-2.687 2.842-2.589 2.908.098.066 1.425-1.189 2.949-2.789 3.53-3.705 3.281-3.788-.36-.119m276.262 1.999c.179.491 5.199 5.673 5.35 5.522.068-.068-1.136-1.417-2.676-2.997-1.54-1.58-2.743-2.716-2.674-2.525m-281.829 3.949L54.688 303l2.512-2.511c1.382-1.38 2.442-2.578 2.356-2.662-.086-.084-1.216 1.046-2.512 2.51m288.61 3.594c.74.842 1.414 1.478 1.498 1.414.226-.172-2.095-2.883-2.498-2.916-.191-.016.259.66 1 1.502m-293.577 1.896c-2.753 3.336-2.429 3.319.508-.027 1.255-1.43 2.132-2.588 1.949-2.573-.184.015-1.29 1.185-2.457 2.6M46.8 312.4c-.697.88-1.177 1.6-1.067 1.6.11 0 .77-.72 1.467-1.6.697-.88 1.177-1.6 1.067-1.6-.11 0-.77.72-1.467 1.6m307.629 2.207c.645.811.608 2.193-.058 2.193-.204 0-.371.188-.371.418 0 .23-.45.868-1 1.418-.55.55-1 1.135-1 1.299 0 .164-.585.926-1.3 1.692-2.458 2.636-3.456 4.197-3.073 4.803.291.46.362.43.367-.159.008-.981 1.064-2.056 1.342-1.367.111.273.215.134.232-.308.018-.442.392-1.028.832-1.303.44-.275.8-.691.8-.925 0-.589 1.05-1.585 1.352-1.282.137.136.248-.038.248-.386 0-.348.166-.693.37-.767.204-.073.429-.401.5-.729.072-.328.636-1.085 1.253-1.683 1.208-1.167 1.104-1.979-.401-3.147-.678-.526-.683-.512-.093.233m-309.911.862c-.514.784-.57 1.114-.21 1.234.271.09.492.429.492.754s.18.479.4.343c.22-.136.4.044.4.4 0 .356.18.536.4.4.22-.136.402.078.404.476.002.398.54 1.148 1.197 1.667.656.518 1.094 1.103.973 1.3-.122.196.07.357.426.357s.535.181.398.403c-.137.221.033.511.377.643s.625.52.625.863c0 .344.114.511.253.372.275-.276 2.547 1.992 2.547 2.543 0 .187.45.79 1 1.34s1 1.218 1 1.484c0 .267.108.377.241.245.311-.312 2.108 1.412 1.883 1.807-.094.165.131.3.501.3.777 0 .602-.276-1.894-2.998-2.253-2.458-3.129-3.48-4.276-4.991a43.83 43.83 0 0 0-2.355-2.784c-.715-.766-1.3-1.528-1.3-1.692 0-.164-.405-.718-.9-1.231-1.527-1.582-2.338-3.306-1.805-3.839.256-.256.343-.465.194-.465-.149 0-.586.481-.971 1.069m300.137 13.372c-1.289 1.321-2.248 2.5-2.129 2.619.301.3 4.758-4.213 4.601-4.659-.07-.2-1.182.718-2.472 2.04M58.4 333.4c0 .34.359.6.829.6.736 0 .761-.067.228-.6-.33-.33-.703-.6-.828-.6-.126 0-.229.27-.229.6m278.5 3.627c-2.255 2.29-4.1 4.428-4.1 4.75 0 .395.358.232 1.094-.495.601-.595 1.051-1.217 1-1.382-.052-.165.187-.3.53-.3s.512-.18.376-.4c-.136-.22.063-.4.443-.4s.579-.111.443-.248c-.273-.272.323-.901 1.531-1.615.431-.254.738-.659.683-.9-.055-.24.125-.392.4-.337.275.055.455-.125.4-.4-.055-.275.181-.5.524-.5s.512-.18.376-.4c-.136-.22-.076-.4.134-.4.209 0 .484-.27.611-.6.451-1.175-.398-.483-4.445 3.627m-277.17-2.283c.401.158.671.46.6.672-.072.211.245.549.704.75.458.202 1.005.742 1.214 1.2.21.459.613.785.896.724.284-.06.416.051.295.247-.298.483 1.14 1.743 1.558 1.364.182-.166.222-.108.088.128-.134.235.075.685.464 1 .747.602 1.651.912 1.651.565 0-.584-6.891-6.99-7.494-6.966-.655.026-.654.049.024.316m7.87 7.119c0 .198.36.62.8.937.44.317.8.837.8 1.155 0 .318.112.466.249.33.136-.137.906.418 1.709 1.233.803.815 1.726 1.534 2.051 1.598.325.064-.489-.929-1.809-2.206-2.893-2.798-3.8-3.525-3.8-3.047m260.8 3.185c-.99.996-2.787 2.555-3.993 3.463-1.206.908-2.663 2.11-3.237 2.67-.574.561-2.079 1.739-3.344 2.619-2.189 1.522-2.636 1.862-4.597 3.5-.461.385-1.016.7-1.234.7a.399.399 0 0 0-.395.4c0 .732 1.151.413 2.164-.6.55-.55 1.09-1 1.2-1 .505 0 2.974-1.929 2.752-2.15-.137-.138.024-.25.358-.25.334 0 1.172-.54 1.863-1.2.691-.66 1.416-1.2 1.611-1.2.196 0 .962-.69 1.704-1.534.741-.844 1.775-1.762 2.297-2.041.944-.503 5.251-4.618 5.251-5.016 0-.535-.746-.026-2.4 1.639m-254.033 3.381c-.445.282-.395.361.233.369.44.005 1.225.548 1.745 1.206.52.658 1.205 1.196 1.524 1.196.318 0 .467.18.331.4-.136.22.044.4.4.4.356 0 .536.18.4.4-.136.22-.049.4.193.4s.827.36 1.299.8c.472.44 1.106.8 1.407.8.302 0 .437.18.301.4-.136.22.033.4.376.4.343 0 .624.18.624.4 0 .22.27.4.6.4.33 0 .6.18.6.4 0 .22.179.4.397.4.361 0 1.692 1.012 3.028 2.3.285.275.801.5 1.146.5.346 0 .629.18.629.4 0 .22.27.4.6.4.33 0 .6-.18.6-.4 0-.22-.27-.4-.6-.4-.33 0-.6-.18-.6-.4 0-.22-.27-.4-.6-.4-.33 0-.6-.141-.6-.314 0-.172-.533-.629-1.185-1.014s-1.417-.925-1.7-1.199c-.283-.275-1.145-.939-1.915-1.475-.77-.537-1.749-1.296-2.175-1.687-.427-.391-.929-.711-1.116-.711-.187 0-1.009-.675-1.825-1.5-2.078-2.1-3.425-2.909-4.117-2.471m235.463 11.195c-.471.474-.576.776-.271.776.504 0 1.641-.95 1.641-1.371 0-.439-.606-.176-1.37.595M91.2 360.629c0 .353 1.101 1.371 1.483 1.371.187 0 .6.36.917.8.317.44.897.8 1.288.8.392 0 .712.18.712.4 0 .22.281.4.624.4.369 0 .507.188.338.462-.169.274-.111.353.144.196.236-.146.701.006 1.033.338.332.332.887.604 1.232.604.346 0 .629.18.629.4 0 .22.251.4.558.4.306 0 1.135.54 1.842 1.2.749.7 1.725 1.203 2.342 1.206.83.005.929.09.458.394-.464.3-.338.389.553.394.634.003 1.446.321 1.804.706.825.887 2.262 1.7 3.004 1.7.315 0 .632.144.706.32.391.94 3.933 2.427 3.933 1.652 0-.505-.276-.772-.8-.772-.44 0-.8-.18-.8-.4 0-.22-.36-.4-.8-.4-.44 0-.8-.159-.8-.353 0-.327-1.261-.901-2.2-1.004-.22-.023-.544-.268-.72-.543-.176-.275-.581-.5-.9-.5-.319 0-.58-.138-.58-.306 0-.275-2.876-1.694-3.433-1.694-.126 0-1.234-.72-2.463-1.6-1.229-.88-2.475-1.6-2.769-1.6-.294 0-.535-.152-.535-.337 0-.186-.81-.754-1.8-1.263-.99-.509-1.8-1.077-1.8-1.263 0-.185-.236-.337-.525-.337-.288 0-.911-.36-1.383-.8-.864-.805-1.292-.994-1.292-.571m216.8.103c0 .183-.495.588-1.1.9-1.315.679-2.1 1.378-2.1 1.871 0 .198-.405.346-.9.329-.519-.019-.858.18-.8.468.055.275-.035.479-.2.453a1.53 1.53 0 0 0-.6.05 7.393 7.393 0 0 1-.6.16c-.165.035-1.02.521-1.9 1.08-.88.558-1.915 1.132-2.3 1.274-.385.142-.7.544-.7.894s-.177.527-.394.393c-.397-.245-6.09 2.536-6.339 3.096-.074.165-.479.3-.9.3-.422 0-.767.18-.767.4 0 .22-.36.4-.8.4-.44 0-.8.18-.8.4 0 .22-.36.4-.8.4-.44 0-.8.266-.8.59 0 .477.209.511 1.086.177 1.538-.585 4.289-2.111 4.447-2.467.074-.165.479-.3.9-.3.422 0 .767-.191.767-.424 0-.233.18-.312.4-.176.22.136.4-.033.4-.376 0-.436.392-.626 1.3-.63.986-.005 1.155-.1.7-.394-.472-.305-.378-.389.441-.394.604-.003 1.567-.509 2.296-1.206.691-.66 1.527-1.2 1.859-1.2.332 0 .604-.18.604-.4 0-.22.272-.4.605-.4.556 0 2.119-.723 2.595-1.201.11-.11.695-.455 1.3-.767.605-.312 1.1-.717 1.1-.9 0-.182.281-.332.624-.332.343 0 .512-.18.376-.4-.136-.22.104-.4.534-.4.429 0 .89-.285 1.023-.633.328-.853.309-.967-.157-.967-.22 0-.4.15-.4.332M118.4 376.4c0 .22.36.4.8.4.44 0 .8.18.8.4 0 .22.36.4.8.4.44 0 .8-.199.8-.443 0-.243-.277-.336-.615-.207-.35.135-.713-.019-.843-.357-.253-.659-1.742-.824-1.742-.193m162 0c0 .22.27.4.6.4.33 0 .6-.18.6-.4 0-.22-.27-.4-.6-.4-.33 0-.6.18-.6.4m-5.6 2.4c0 .22.27.4.6.4.33 0 .6-.18.6-.4 0-.22-.27-.4-.6-.4-.33 0-.6.18-.6.4m-148.4.629c0 .418.991 1.169 1.7 1.289.385.064.7-.071.7-.3 0-.23-.36-.418-.8-.418-.44 0-.8-.18-.8-.4 0-.22-.18-.4-.4-.4-.22 0-.4.103-.4.229m146.4.171c0 .22.27.4.6.4.33 0 .6-.18.6-.4 0-.22-.27-.4-.6-.4-.33 0-.6.18-.6.4M130 381.2c0 .22.27.4.6.4.33 0 .6-.18.6-.4 0-.22-.27-.4-.6-.4-.33 0-.6.18-.6.4m139.067-.133c-.486.486-.277.912.333.678.33-.127.6-.391.6-.588 0-.419-.551-.473-.933-.09M132 381.813c0 .323.27.587.6.587.33 0 .6-.161.6-.357 0-.197-.27-.461-.6-.588-.365-.14-.6 0-.6.358m134.03.138c-1.128.315-1.606 1.249-.64 1.249.362 0 .546-.18.41-.4-.144-.233.263-.4.976-.4.673 0 1.224-.18 1.224-.4 0-.443-.515-.456-1.97-.049m-131.775.649c.132.342.728.6 1.388.6.636 0 1.157.18 1.157.4 0 .22.195.4.433.4 1.325 0-1.635-1.892-3.12-1.994-.049-.003.016.264.142.594m128.645.465c-.756.305-.599.935.233.935.404 0 .734-.27.734-.6 0-.625-.134-.671-.967-.335m-124.555.869c.461.312.461.403 0 .586-.3.119-.035.231.588.248 1.4.039 1.256-.913-.164-1.085-.698-.085-.816-.014-.424.251m121.922-.067c-.409.408-.318.933.162.933.235 0 .698-.27 1.028-.6.533-.533.515-.6-.162-.6-.419 0-.882.12-1.028.267m-119.362.81c.388.101.602.35.476.553-.125.204.333.37 1.019.37.73 0 1.145.166 1 .4-.136.22.138.4.61.4 1.166 0 .792-.963-.441-1.134-.533-.073-1.14-.298-1.349-.5-.209-.201-.749-.345-1.2-.32-.682.039-.701.078-.115.231m116.95.323c-.153.401.017.6.515.6.409 0 .848-.27.975-.6.153-.401-.017-.6-.515-.6-.409 0-.848.27-.975.6m-2.455.6c-.136.22-.766.4-1.4.4-.634 0-1.271.192-1.416.427-.433.699.195.979 1.029.458.427-.267 1.151-.485 1.61-.485.459 0 1.104-.27 1.434-.6.533-.533.511-.6-.205-.6-.443 0-.916.18-1.052.4m-109.494.683c.498.096.803.341.676.546-.126.204.051.371.394.371s.624-.27.624-.6c0-.421-.387-.584-1.3-.546-.95.04-1.056.102-.394.229m2.627 1.059c0 .298.375.546.834.552 2.763.032 3.229.121 2.633.506-.439.284-.137.389 1.124.394 1.045.004 1.626.163 1.476.406-.144.233.263.4.976.4.821 0 1.224-.197 1.224-.6 0-.433-.444-.6-1.6-.6-.88 0-1.6-.18-1.6-.4 0-.22-.709-.4-1.576-.4-.867 0-1.688-.18-1.824-.4-.368-.595-1.667-.484-1.667.142m101.247-.171c-.209.205-1.01.43-1.78.5-1.615.149-1.73.866-.17 1.06.677.083.96-.024.789-.3-.174-.282.33-.433 1.457-.437 1.154-.004 1.539-.123 1.166-.36-.448-.284-.409-.391.2-.547.575-.147.512-.205-.262-.241-.561-.025-1.191.121-1.4.325m-6.313 1.496c-.577.576-.211.933.957.933.673 0 1.121-.165.997-.366-.124-.201 0-.457.277-.568.276-.112-.053-.217-.731-.234-.679-.018-1.354.088-1.5.235m-85.565.782c.277.12.393.398.258.616-.146.236.216.344.897.266 1.61-.184 1.425-.914-.257-1.017-.77-.047-1.174.014-.898.135m81.976.007c-.458.457.145.944 1.169.944.55 0 .898-.165.774-.366-.124-.201 0-.457.277-.568.276-.112-.053-.217-.731-.234-.679-.018-1.349.083-1.489.224m-78.372.827c.498.096.794.355.657.576-.15.243.193.351.864.272 2.043-.241 1.632-1.136-.494-1.077-1.063.03-1.525.133-1.027.229m74.372-.027c-.447.446.135.944 1.103.944.513 0 1.037-.27 1.164-.6.235-.614-1.703-.909-2.267-.344m-70.278.944c1.45.464 3.2.464 3.2 0 0-.221-.94-.382-2.1-.36-1.652.031-1.887.108-1.1.36m65.8 0c-.29.47 1.533.47 3 0 .819-.262.66-.327-.876-.36-1.032-.022-1.988.14-2.124.36m-60.2.8c0 .22.63.4 1.4.4.77 0 1.4-.18 1.4-.4 0-.22-.63-.4-1.4-.4-.77 0-1.4.18-1.4.4m54.8 0c0 .22.63.4 1.4.4.77 0 1.4-.18 1.4-.4 0-.22-.63-.4-1.4-.4-.77 0-1.4.18-1.4.4m-49.6.8c0 .22.9.4 2 .4s2-.18 2-.4c0-.22-.9-.4-2-.4s-2 .18-2 .4m43.2 0c0 .221 1.029.397 2.3.394 1.633-.004 2.126-.119 1.7-.394-.792-.512-4-.512-4 0m-35 .8c-.158.255 1.004.4 3.2.4s3.358-.145 3.2-.4c-.136-.22-1.576-.4-3.2-.4s-3.064.18-3.2.4m24.2 0c0 .237 1.475.4 3.624.4 2.313 0 3.534-.145 3.376-.4-.136-.22-1.767-.4-3.624-.4-1.984 0-3.376.165-3.376.4" fill="#8bbcfc"/>
    <path d="M190.4 62.816c-.627.21-.03.25 1.6.107 1.43-.126 2.675-.295 2.767-.376.328-.289-3.387-.061-4.367.269m15.233-.266c.092.082 1.247.254 2.567.381 1.555.149 2.048.111 1.4-.11-.986-.337-4.29-.562-3.967-.271M185.6 63.6c-.764.494.058.494 1.6 0l1-.32-1-.034c-.55-.019-1.27.141-1.6.354m27.2 0c1.542.494 2.364.494 1.6 0-.33-.213-1.05-.373-1.6-.354l-1 .034 1 .32m-31 .8c-1.019.438.032.438 1.4 0 .804-.257.843-.323.2-.332-.44-.006-1.16.143-1.6.332m35 0c1.368.438 2.419.438 1.4 0-.44-.189-1.16-.338-1.6-.332-.643.009-.604.075.2.332m-38 .8c-.533.345-.533.388 0 .388.33 0 .87-.175 1.2-.388.533-.345.533-.388 0-.388-.33 0-.87.175-1.2.388m41.2 0c.33.213.87.388 1.2.388.533 0 .533-.043 0-.388-.33-.213-.87-.388-1.2-.388-.533 0-.533.043 0 .388m-58 7.253c-1.43.884-2.78 1.806-3 2.05-.22.244.103.131.718-.25.614-.382 2.054-1.244 3.2-1.916 2.332-1.369 2.574-1.547 2.049-1.514-.202.013-1.537.747-2.967 1.63m72.833-1.495c.42.398 4.12 2.293 3.767 1.929-.463-.477-3.302-2.087-3.679-2.087-.14 0-.179.071-.088.158m-79.128 5.567c-.712.481-1.297 1.019-1.3 1.195-.003.177.625-.16 1.395-.747s1.4-1.137 1.4-1.22c0-.226-.081-.184-1.495.772m-3.754 3.106-1.751 1.631 1.9-1.516c1.045-.833 1.9-1.567 1.9-1.631 0-.308-.437.015-2.049 1.516m95.649-.123c.99.886 1.877 1.537 1.971 1.447.177-.169-.514-.764-2.571-2.213-.66-.464-.39-.12.6.766M146.978 84.11c-2.607 2.71-2.632 2.752-.406.689 1.304-1.21 2.63-2.433 2.947-2.718.317-.286.5-.595.407-.689-.094-.093-1.42 1.13-2.948 2.718M253 84.4c1.75 1.76 3.271 3.2 3.381 3.2.11 0-1.231-1.44-2.981-3.2-1.75-1.76-3.271-3.2-3.381-3.2-.11 0 1.231 1.44 2.981 3.2m-110.645 4.7c-1.274 1.408-2.099 2.5-1.889 2.5.091 0 .842-.81 1.669-1.8 1.652-1.976 1.8-2.447.22-.7m115.51.7c1.666 1.994 2.248 2.414.968.7-1.549-2.076-1.922-2.5-2.197-2.5-.152 0 .401.81 1.229 1.8m-119.672 4.686c-2.386 3.646-3.176 4.959-2.716 4.514.684-.661 4.602-6.654 4.45-6.806-.078-.078-.858.954-1.734 2.292m121.809-2.253c.001.202.466.907 1.033 1.567l1.031 1.2-.903-1.4c-1.159-1.796-1.163-1.801-1.161-1.367M263.149 97c.216.44.685 1.16 1.044 1.6l.651.8-.393-.8c-.216-.44-.685-1.16-1.044-1.6l-.651-.8.393.8M134.2 100.8c-.341.66-.531 1.2-.421 1.2.11 0 .48-.54.821-1.2.341-.66.531-1.2.421-1.2-.11 0-.48.54-.821 1.2m131.446.396c.493.877.962 1.53 1.041 1.45.172-.172-1.481-3.046-1.752-3.046-.102 0 .217.718.711 1.596m-138.997 19.019a3.854 3.854 0 0 0-.215 1.318c.019.367.193.136.387-.513.377-1.262.244-1.887-.172-.805m146.179-.339c.09 1.039.716 1.92.744 1.048.015-.482-.152-.988-.372-1.124-.22-.136-.387-.102-.372.076m1.034 4.324c.134.88.31 1.675.391 1.767.303.343.076-1.799-.272-2.567-.252-.558-.288-.315-.119.8m-148.013-.385c-.137.358-.231 1.041-.208 1.518.026.548.162.353.369-.53.35-1.487.255-2.07-.161-.988M274.702 131c.115 1.98.274 3.675.353 3.767.283.326.06-5.384-.249-6.367-.172-.55-.219.62-.104 2.6m-149.646-2.116c-.135.504-.222 1.996-.195 3.316.05 2.374.054 2.365.357-.8.316-3.303.264-4.106-.162-2.516m-.228 14.149c.016 1.522.176 3.127.356 3.567.185.453.236-.673.118-2.6-.257-4.179-.512-4.698-.474-.967m150.048-.583c-.042 1.238-.165 2.858-.275 3.6l-.198 1.35.417-1.33c.23-.731.354-2.351.275-3.6l-.144-2.27-.075 2.25m-149.27 7.383c.003.642.19 1.437.415 1.767.293.43.333.146.141-1-.332-1.984-.564-2.304-.556-.767m148.448.034a8.132 8.132 0 0 1-.284 1.6c-.218.694-.206.695.226.021.251-.391.379-1.111.285-1.6-.172-.887-.172-.887-.227-.021m-147.648 3.966c.003.422.189 1.037.412 1.367.297.438.334.276.138-.6-.329-1.471-.558-1.79-.55-.767M133 172c.557 1.1 1.103 2 1.213 2 .11 0-.256-.9-.813-2-.557-1.1-1.103-2-1.213-2-.11 0 .256.9.813 2m132.753 1.7c-1.377 2.336-1.467 2.535-.766 1.7.813-.968 1.513-2.2 1.251-2.2-.105 0-.323.225-.485.5m-3.427 5.544c-1.031 1.516-1.751 2.752-1.6 2.748.317-.01 3.795-5.21 3.602-5.386-.07-.064-.971 1.123-2.002 2.638m-124.362 1.089c.216.403.707.988 1.091 1.3.432.351.335.071-.254-.733-1.05-1.435-1.444-1.702-.837-.567m2.08 2.667c.994 1.481 2.356 3.064 2.35 2.731-.003-.182-.654-1.051-1.446-1.931-.792-.88-1.199-1.24-.904-.8m118.931.868c-.616.808-.916 1.343-.666 1.188.512-.316 2.244-2.656 1.966-2.656-.099 0-.684.661-1.3 1.468m-2.794 3.432L254.6 189l1.7-1.581c1.581-1.471 1.884-1.819 1.581-1.819-.065 0-.83.765-1.7 1.7M144.2 188c.859.88 1.652 1.6 1.762 1.6.11 0-.503-.72-1.362-1.6-.859-.88-1.652-1.6-1.762-1.6-.11 0 .503.72 1.362 1.6m108.66 2.642c-.298.336-.461.69-.365.787.097.097.503-.185.903-.627.399-.441.563-.795.364-.787-.199.009-.605.29-.902.627M149 192.8c1.083 1.1 2.06 2 2.17 2 .11 0-.687-.9-1.77-2s-2.06-2-2.17-2c-.11 0 .687.9 1.77 2m100.374 1.307-1.574 1.692 1.596-1.4c.877-.769 1.672-1.444 1.766-1.499.094-.055.085-.187-.021-.293-.106-.106-.901.569-1.767 1.5m-96.705 2.002c2.091 1.682 2.745 1.996 1.131.543-.88-.792-1.749-1.443-1.931-1.446-.182-.003.178.403.8.903m93.131.935-1.6 1.432 1.7-1.272c1.463-1.094 1.991-1.621 1.6-1.598-.055.003-.82.65-1.7 1.438m-7.9 5.185c-.605.328-1.1.681-1.1.784 0 .386.632.144 1.6-.613 1.189-.93 1.011-.991-.5-.171M179.4 210c.136.22.642.387 1.124.372.845-.027.847-.041.076-.372-1.101-.473-1.492-.473-1.2 0m3.2.8c.44.189 1.16.338 1.6.332.643-.009.604-.075-.2-.332-1.368-.438-2.419-.438-1.4 0m33.6 0c-1.107.282-1.123.309-.2.347.55.022 1.27-.134 1.6-.347.681-.44.329-.44-1.4 0m-30 .797c.764.331 3.714.558 3.367.259-.092-.079-1.067-.247-2.167-.374-1.287-.149-1.715-.108-1.2.115m25.6.003-1.6.286 1.4.029c.77.016 1.76-.126 2.2-.315.943-.405.262-.405-2 0m-15.5 1.098c2.035.073 5.365.073 7.4 0s.37-.132-3.7-.132-5.735.059-3.7.132m-1.4 24.801c2.805.069 7.395.069 10.2 0 2.805-.069.51-.125-5.1-.125-5.61 0-7.905.056-5.1.125m-9.4.383a5.661 5.661 0 0 0 1.8 0c.495-.095.09-.173-.9-.173s-1.395.078-.9.173m27.2 0a5.661 5.661 0 0 0 1.8 0c.495-.095.09-.173-.9-.173s-1.395.078-.9.173m-32.393.408c.719.089 1.799.087 2.4-.004s.013-.164-1.307-.162c-1.32.002-1.812.077-1.093.166m35.726-.146c.092.08 1.787.241 3.767.359 2.448.146 3.088.107 2-.121-1.58-.332-6.09-.517-5.767-.238M172 239.202c-.6.193.04.235 1.6.104 1.43-.12 2.675-.283 2.767-.362.322-.279-3.379-.06-4.367.258m51.633-.258c.092.079 1.337.242 2.767.362 1.56.131 2.2.089 1.6-.104-.988-.318-4.689-.537-4.367-.258m-56.833 1.068c-.419.279-.058.321 1.2.138 2.241-.325 2.56-.552.767-.544-.752.003-1.637.186-1.967.406m63.233-.268c.092.08.977.252 1.967.383 1.202.159 1.534.12 1-.117-.764-.338-3.314-.567-2.967-.266m-67.233 1.062c-.422.276-.185.317.8.136 1.725-.317 2.051-.544.767-.536-.532.003-1.237.183-1.567.4m71.633-.262c.092.08.977.262 1.967.406 1.258.183 1.619.141 1.2-.138-.54-.359-3.568-.615-3.167-.268m-75.633 1.051c-.409.26-.09.304 1 .137 1.977-.303 2.314-.534.767-.526-.642.003-1.437.178-1.767.389m80.033-.252c.092.078.797.258 1.567.399.985.181 1.222.14.8-.136-.542-.356-2.763-.603-2.367-.263m-83.633 1.075c-.438.297-.276.334.6.138 1.471-.329 1.79-.558.767-.55-.422.003-1.037.189-1.367.412m88-.018c1.542.494 2.364.494 1.6 0-.33-.213-1.05-.373-1.6-.354l-1 .034 1 .32m-91.2.818c-.438.297-.276.334.6.138 1.471-.329 1.79-.558.767-.55-.422.003-1.037.189-1.367.412m94.033-.274c.092.079.707.264 1.367.412.876.196 1.038.159.6-.138-.54-.365-2.368-.62-1.967-.274M249.8 244c1.101.473 1.492.473 1.2 0-.136-.22-.642-.387-1.124-.372-.845.027-.847.041-.076.372m-124.2 7.89c-.33.125-1.73.741-3.11 1.369-1.381.627-2.675 1.141-2.876 1.141-.202 0-.478.179-.613.399-.326.527.972.028 6.999-2.693 1.016-.459.697-.631-.4-.216m149.158.547c.967.429 1.83.708 1.917.621.173-.172-2.91-1.476-3.383-1.43-.161.016.499.38 1.466.809m2.643 1.164c.135.22.418.399.627.399.309 0 3.192 1.218 4.472 1.89.165.086.3.061.3-.056 0-.211-2.617-1.48-4.622-2.242-.677-.258-.94-.255-.777.009M105.6 261.633l-1 .815 1.3-.634c.715-.349 1.3-.72 1.3-.824 0-.398-.637-.142-1.6.643m190 .957c0 .104.585.475 1.3.824l1.3.634-1-.815c-.963-.785-1.6-1.041-1.6-.643m3.6 2.177c.963.785 1.6 1.041 1.6.643 0-.104-.585-.475-1.3-.824l-1.3-.634 1 .815M95.6 267.6c-.99.658-1.661 1.197-1.491 1.198.348.002 3.491-2.024 3.491-2.251 0-.255-.158-.172-2 1.053m206.8-1.071c0 .098 1.215.962 2.7 1.921 1.485.959 4.23 2.797 6.1 4.085 1.87 1.289 3.04 1.985 2.6 1.548-1.127-1.12-11.4-7.926-11.4-7.554m-214.893 6.397c-1.041.7-1.896 1.409-1.9 1.573-.004.165.893-.347 1.993-1.137s2-1.51 2-1.6c0-.241-.042-.217-2.093 1.164m-8.707 6.708-1.8 1.631 1.9-1.481c1.666-1.298 2.159-1.787 1.8-1.783-.055.001-.91.735-1.9 1.633m-4.4 3.623-2.2 2.032 2.099-1.681c1.84-1.474 2.814-2.435 2.425-2.395-.068.007-1.114.927-2.324 2.044m250.2-.663c5.9 5.493 9.4 8.63 9.4 8.427 0-.331-4.433-4.439-8-7.414-1.65-1.376-2.28-1.832-1.4-1.013m-254.92 4.662c-1.165 1.121-2.055 2.102-1.976 2.181.079.079 1.116-.842 2.306-2.047 2.723-2.757 2.495-2.85-.33-.134m-9.446 9.229c-3.649 3.787-6.634 7.011-6.634 7.165 0 .155 1.118-.919 2.484-2.385 1.367-1.466 4.469-4.69 6.894-7.165 2.425-2.475 4.292-4.5 4.149-4.5-.143 0-3.245 3.098-6.893 6.885m276.966-2.296c1.65 1.753 3.045 3.268 3.1 3.366.055.098.185.094.288-.01.103-.103-1.292-1.618-3.1-3.366L334.2 291l3 3.189m6.2 6.611c1.083 1.1 2.06 2 2.17 2 .11 0-.687-.9-1.77-2s-2.06-2-2.17-2c-.11 0 .687.9 1.77 2m-291.241 4.5c-1.752 2.021-2.272 2.7-2.069 2.7.117 0 .877-.81 1.689-1.8 1.502-1.834 1.8-2.537.38-.9m299.196 4.819c.848 1.034 1.625 1.881 1.727 1.881.273 0-2.261-3.14-2.805-3.476-.255-.158.23.56 1.078 1.595m2.287 2.981c2.482 3.221 3.028 3.6 1.158.805-.55-.822-1.157-1.497-1.349-1.5-.192-.003-.106.31.191.695m-10.829 18.391c-.524.591-.51.632.133.385.396-.152.795-.276.887-.276.092 0 .167-.18.167-.4 0-.588-.519-.461-1.187.291M229.52 392.08c.373.373.587.373.96 0s.267-.48-.48-.48-.853.107-.48.48" fill="#a4c9fc"/>
    <path d="M124.937 137.4c.002 1.76.072 2.43.156 1.489.085-.94.084-2.38-.002-3.2-.086-.819-.155-.049-.154 1.711m149.997.2c0 1.65.071 2.325.157 1.5.087-.825.087-2.175 0-3-.086-.825-.157-.15-.157 1.5M52 326.229c0 .125.27.498.6.828.651.651.733.554.357-.424-.228-.595-.957-.903-.957-.404M73.4 347.6c.398.44.904.8 1.123.8.22 0-.016-.36-.523-.8-.507-.44-1.013-.8-1.123-.8-.111 0 .125.36.523.8m109.651 45.917c-.107.174.148.343.569.375.42.031.868-.111.996-.317.127-.206-.129-.375-.569-.375-.44 0-.888.143-.996.317" fill="#94bcfc"/>
  </g>
</svg>
